<svg xmlns="http://www.w3.org/2000/svg" viewBox="0 0 1024 1024" role="img"><path d="M342.503 803.923c0 4.129-4.748 7.432-10.735 7.432-6.813.62-11.562-2.684-11.562-7.432 0-4.13 4.749-7.433 10.736-7.433 6.193-.619 11.561 2.684 11.561 7.433zm-64.206-9.29c-1.445 4.128 2.684 8.877 8.877 10.115 5.368 2.065 11.561 0 12.8-4.129s-2.684-8.877-8.877-10.735c-5.368-1.445-11.355.62-12.8 4.748zm91.251-3.51c-5.987 1.445-10.116 5.367-9.496 10.116.619 4.129 5.987 6.813 12.18 5.367 5.987-1.445 10.116-5.367 9.497-9.496-.62-3.923-6.194-6.607-12.18-5.987zM505.394 0C219.045 0 0 217.394 0 503.742c0 228.955 144.103 424.877 349.935 493.832 26.426 4.749 35.717-11.561 35.717-24.98 0-12.8-.62-83.407-.62-126.762 0 0-144.516 30.968-174.864-61.522 0 0-23.536-60.078-57.394-75.562 0 0-47.277-32.413 3.303-31.793 0 0 51.407 4.129 79.69 53.264 45.214 79.69 120.981 56.775 150.504 43.149 4.748-33.033 18.168-55.949 33.032-69.574-115.406-12.8-231.845-29.523-231.845-228.13 0-56.774 15.69-85.264 48.723-121.6-5.368-13.419-22.916-68.748 5.367-140.18C284.697 200.464 384 269.626 384 269.626a487.723 487.723 0 01259.303 0s99.303-69.368 142.452-55.742c28.284 71.639 10.735 126.761 5.368 140.18 33.032 36.542 53.264 65.033 53.264 121.6 0 199.226-121.6 215.123-237.006 228.13 18.993 16.31 35.096 47.277 35.096 95.793 0 69.574-.619 155.665-.619 172.594 0 13.419 9.497 29.729 35.716 24.98C884.026 928.62 1024 732.697 1024 503.741 1024 217.395 791.742 0 505.394 0zM200.67 712.052c-2.684 2.064-2.065 6.812 1.445 10.735 3.303 3.303 8.052 4.748 10.736 2.065 2.684-2.065 2.064-6.813-1.446-10.736-3.303-3.303-8.051-4.748-10.735-2.064zm-22.297-16.723c-1.445 2.684.62 5.987 4.749 8.052 3.303 2.064 7.432 1.445 8.877-1.446 1.445-2.683-.62-5.987-4.748-8.051-4.13-1.239-7.433-.62-8.878 1.445zm66.89 73.497c-3.303 2.684-2.064 8.877 2.684 12.8 4.749 4.748 10.736 5.368 13.42 2.064 2.684-2.684 1.445-8.877-2.684-12.8-4.542-4.748-10.736-5.367-13.42-2.064zm-23.535-30.349c-3.303 2.065-3.303 7.433 0 12.181s8.877 6.813 11.561 4.748c3.304-2.683 3.304-8.051 0-12.8-2.89-4.748-8.258-6.813-11.561-4.129z"/></svg>